<svg width="60" height="60" viewBox="0 0 60 60" fill="none" xmlns="http://www.w3.org/2000/svg">
<rect width="60" height="60" rx="2" fill="#586A74"/>
<rect opacity="0.6" x="6" y="48" width="48" height="2" fill="white"/>
<rect opacity="0.6" x="6" y="52" width="48" height="2" fill="white"/>
<rect x="18" y="42" width="24" height="3" fill="white"/>
<path d="M38.85 24.0187C35.4 23.1963 32.175 22.5234 33.75 19.6075C38.475 10.785 34.95 6 30 6C24.9 6 21.525 10.9346 26.25 19.6075C27.825 22.5234 24.525 23.271 21.15 24.0187C18.225 24.6916 18 26.1869 18 28.6542V29.9252H20.025C20.025 26.785 19.875 26.4112 21.9 25.9626C24.75 25.2897 27.45 24.6916 28.425 22.5234C28.8 21.7009 29.025 20.4299 28.05 18.7103C26.025 14.8972 25.5 11.6075 26.625 9.73832C27.975 7.49533 32.025 7.49533 33.375 9.73832C34.5 11.6075 34.05 14.972 31.95 18.785C31.05 20.5047 31.275 21.7757 31.65 22.5981C32.625 24.7664 35.325 25.3645 38.25 26.0374C40.125 26.486 39.975 26.9346 39.975 30H42V28.729C42 26.1869 41.775 24.6916 38.85 24.0187Z" fill="white" fill-opacity="0.5"/>
</svg>
