<svg width="60" height="60" viewBox="0 0 60 60" fill="none" xmlns="http://www.w3.org/2000/svg">
<circle cx="53" cy="34" r="5" stroke="#586A74" stroke-width="4"/>
<path fill-rule="evenodd" clip-rule="evenodd" d="M56 26H60C60 22.134 56.866 19 53 19C49.134 19 46 22.134 46 26H50C50 24.3431 51.3431 23 53 23C54.6569 23 56 24.3431 56 26Z" fill="#586A74"/>
<rect x="46" y="26" width="4" height="8" fill="#586A74"/>
<circle cx="35" cy="34" r="5" stroke="#586A74" stroke-width="4"/>
<path fill-rule="evenodd" clip-rule="evenodd" d="M38 26H42C42 22.134 38.866 19 35 19C31.134 19 28 22.134 28 26H32C32 24.3431 33.3431 23 35 23C36.6569 23 38 24.3431 38 26Z" fill="#586A74"/>
<rect x="28" y="26" width="4" height="8" fill="#586A74"/>
<rect opacity="0.2" y="19" width="22" height="22" rx="11" fill="#586A74"/>
<path d="M11 23.125C7.20328 23.125 4.125 26.2033 4.125 30C4.125 33.7967 7.20328 36.875 11 36.875C14.7967 36.875 17.875 33.7967 17.875 30C17.875 26.2033 14.7967 23.125 11 23.125ZM13.4784 33.5899L11 32.2642L8.52156 33.5893L9.01599 30.8227L6.98958 28.8754L9.77396 28.4909L11 25.9615L12.226 28.4909L15.0104 28.8754L12.984 30.8233L13.4784 33.5899V33.5899Z" fill="#586A74"/>
<rect opacity="0.6" x="14" y="54" width="32" height="2" fill="#586A74"/>
<rect opacity="0.6" x="14" y="58" width="32" height="2" fill="#586A74"/>
<rect x="18" y="48" width="24" height="3" fill="#586A74"/>
</svg>
