<svg width="60" height="60" viewBox="0 0 60 60" fill="none" xmlns="http://www.w3.org/2000/svg">
<circle cx="39" cy="34" r="5" stroke="#586A74" stroke-width="4"/>
<path fill-rule="evenodd" clip-rule="evenodd" d="M42 26H46C46 22.134 42.866 19 39 19C35.134 19 32 22.134 32 26H36C36 24.3431 37.3431 23 39 23C40.6569 23 42 24.3431 42 26Z" fill="#586A74"/>
<rect x="32" y="26" width="4" height="8" fill="#586A74"/>
<circle cx="21" cy="34" r="5" stroke="#586A74" stroke-width="4"/>
<path fill-rule="evenodd" clip-rule="evenodd" d="M24 26H28C28 22.134 24.866 19 21 19C17.134 19 14 22.134 14 26H18C18 24.3431 19.3431 23 21 23C22.6569 23 24 24.3431 24 26Z" fill="#586A74"/>
<rect x="14" y="26" width="4" height="8" fill="#586A74"/>
<rect opacity="0.6" x="14" y="54" width="32" height="2" fill="#586A74"/>
<rect opacity="0.6" x="14" y="58" width="32" height="2" fill="#586A74"/>
<rect x="18" y="48" width="24" height="3" fill="#586A74"/>
</svg>
