<svg width="60" height="60" viewBox="0 0 60 60" fill="none" xmlns="http://www.w3.org/2000/svg">
<rect opacity="0.2" x="2.5" y="2.5" width="55" height="55" rx="27.5" stroke="#1A262D" stroke-width="5"/>
<path d="M30 15C21.7163 15 15 21.7163 15 30C15 38.2837 21.7163 45 30 45C38.2837 45 45 38.2837 45 30C45 21.7163 38.2837 15 30 15ZM35.4075 37.8325L30 34.94L24.5925 37.8312L25.6712 31.795L21.25 27.5462L27.325 26.7075L30 21.1888L32.675 26.7075L38.75 27.5462L34.3288 31.7963L35.4075 37.8325V37.8325Z" fill="#586A74"/>
<path fill-rule="evenodd" clip-rule="evenodd" d="M0 30C0 46.5685 13.4315 60 30 60C46.5685 60 60 46.5685 60 30C60 13.4315 46.5685 0 30 0V5C43.8071 5 55 16.1929 55 30C55 43.8071 43.8071 55 30 55C16.1929 55 5 43.8071 5 30H0Z" fill="#586A74"/>
</svg>
