<svg width="60" height="60" viewBox="0 0 60 60" fill="none" xmlns="http://www.w3.org/2000/svg">
<rect y="15" width="30" height="30" fill="#586A74"/>
<path d="M13 27.3333H11V30H13V38H16.3333V30H18.7613L19 27.3333H16.3333V26.222C16.3333 25.5853 16.4613 25.3333 17.0767 25.3333H19V22H16.4613C14.064 22 13 23.0553 13 25.0767V27.3333Z" fill="white"/>
<rect opacity="0.2" x="30" y="15" width="30" height="30" fill="#586A74"/>
<path d="M45 22.6223C47.403 22.6223 47.688 22.6313 48.6375 22.6748C51.0765 22.7858 52.2157 23.943 52.3267 26.364C52.3702 27.3127 52.3785 27.5978 52.3785 30.0008C52.3785 32.4045 52.3695 32.6888 52.3267 33.6375C52.215 36.0563 51.0788 37.2157 48.6375 37.3267C47.688 37.3702 47.4045 37.3793 45 37.3793C42.597 37.3793 42.312 37.3702 41.3633 37.3267C38.9183 37.215 37.785 36.0525 37.674 33.6368C37.6305 32.688 37.6215 32.4037 37.6215 30C37.6215 27.597 37.6313 27.3128 37.674 26.3633C37.7858 23.943 38.922 22.785 41.3633 22.674C42.3128 22.6313 42.597 22.6223 45 22.6223V22.6223ZM45 21C42.5557 21 42.2497 21.0105 41.2897 21.054C38.0213 21.204 36.2048 23.0175 36.0547 26.289C36.0105 27.2498 36 27.5557 36 30C36 32.4443 36.0105 32.751 36.054 33.711C36.204 36.9795 38.0175 38.796 41.289 38.946C42.2498 38.9895 42.5557 39 45 39C47.4443 39 47.751 38.9895 48.711 38.946C51.9765 38.796 53.7975 36.9825 53.9453 33.711C53.9895 32.751 54 32.4443 54 30C54 27.5557 53.9895 27.2497 53.946 26.2897C53.799 23.0242 51.9832 21.2048 48.7117 21.0547C47.751 21.0105 47.4443 21 45 21V21ZM45 25.3785C42.4477 25.3785 40.3785 27.4477 40.3785 30C40.3785 32.5523 42.4477 34.6223 45 34.6223C47.5523 34.6223 49.6215 32.553 49.6215 30C49.6215 27.4477 47.5523 25.3785 45 25.3785ZM45 33C43.3432 33 42 31.6575 42 30C42 28.3432 43.3432 27 45 27C46.6568 27 48 28.3432 48 30C48 31.6575 46.6568 33 45 33ZM49.8045 24.1163C49.2075 24.1163 48.7238 24.6 48.7238 25.1962C48.7238 25.7925 49.2075 26.2762 49.8045 26.2762C50.4008 26.2762 50.8837 25.7925 50.8837 25.1962C50.8837 24.6 50.4008 24.1163 49.8045 24.1163Z" fill="#586A74"/>
</svg>
