<svg width="60" height="60" viewBox="0 0 60 60" fill="none" xmlns="http://www.w3.org/2000/svg">
<path d="M1.75 27.6667H0V30H1.75V37H4.66667V30H6.79117L7 27.6667H4.66667V26.6942C4.66667 26.1372 4.77867 25.9167 5.31708 25.9167H7V23H4.77867C2.681 23 1.75 23.9234 1.75 25.6921V27.6667Z" fill="#586A74"/>
<path d="M11.8322 34H13.6922V28.552H13.7402L16.8362 34H19.0682V25.6H17.1962V31.084H17.1482L14.0522 25.6H11.8322V34ZM23.3182 34.108C25.0342 34.108 26.0302 33.112 26.1982 31.984H24.4102C24.3022 32.272 24.0022 32.608 23.3182 32.608C22.4782 32.608 22.1062 32.092 22.0942 31.36H26.2822V30.676C26.2822 28.972 25.2022 27.616 23.2822 27.616C21.2422 27.616 20.2102 29.092 20.2102 30.868C20.2102 32.668 21.3382 34.108 23.3182 34.108ZM22.1062 30.196C22.1422 29.596 22.4902 29.128 23.2822 29.128C24.0142 29.128 24.3622 29.596 24.3982 30.196H22.1062ZM29.9381 34.108C30.5261 34.108 31.0181 34 31.2101 33.928V32.392H31.0901C30.8981 32.464 30.6941 32.5 30.4901 32.5C29.9381 32.5 29.6861 32.248 29.6861 31.66V29.296H31.1861V27.724H29.6861V26.08H29.5661L27.9221 26.416V27.724H26.8181V29.296H27.8381V32.104C27.8381 33.244 28.4861 34.108 29.9381 34.108ZM33.4021 34H35.8381L36.7381 29.704H36.7861L37.6501 34H40.0861L41.6221 27.844V27.724H39.8221L38.8741 32.02H38.8261L37.9861 27.724H35.5141L34.6741 32.02H34.6261L33.6781 27.724H31.8661V27.844L33.4021 34ZM45.1742 34.108C47.2142 34.108 48.3062 32.74 48.3062 30.868C48.3062 28.984 47.1902 27.616 45.1742 27.616C43.1582 27.616 42.0422 28.984 42.0422 30.868C42.0422 32.752 43.1342 34.108 45.1742 34.108ZM45.1742 32.488C44.4182 32.488 43.9262 32.008 43.9262 30.868C43.9262 29.74 44.4062 29.236 45.1742 29.236C45.9422 29.236 46.4222 29.728 46.4222 30.868C46.4222 32.008 45.9422 32.488 45.1742 32.488ZM49.2094 34H50.9374V30.904C50.9374 29.896 51.5014 29.308 52.3774 29.308H52.9774V27.616H52.5454C51.7414 27.616 51.2134 28.084 50.9374 28.636H50.8894L50.7454 27.724H49.2094V34ZM57.2094 30.688L59.7534 27.844V27.724H57.5934L55.6014 30.004V25.12H53.8734V34H55.6014V31.432L57.6534 34H59.8854V33.88L57.2094 30.688Z" fill="#586A74"/>
</svg>
