<svg width="60" height="60" viewBox="0 0 60 60" fill="none" xmlns="http://www.w3.org/2000/svg">
<path d="M5.83219 34H7.69219V28.552H7.74019L10.8362 34H13.0682V25.6H11.1962V31.084H11.1482L8.05219 25.6H5.83219V34ZM17.3182 34.108C19.0342 34.108 20.0302 33.112 20.1982 31.984H18.4102C18.3022 32.272 18.0022 32.608 17.3182 32.608C16.4782 32.608 16.1062 32.092 16.0942 31.36H20.2822V30.676C20.2822 28.972 19.2022 27.616 17.2822 27.616C15.2422 27.616 14.2102 29.092 14.2102 30.868C14.2102 32.668 15.3382 34.108 17.3182 34.108ZM16.1062 30.196C16.1422 29.596 16.4902 29.128 17.2822 29.128C18.0142 29.128 18.3622 29.596 18.3982 30.196H16.1062ZM23.9381 34.108C24.5261 34.108 25.0181 34 25.2101 33.928V32.392H25.0901C24.8981 32.464 24.6941 32.5 24.4901 32.5C23.9381 32.5 23.6861 32.248 23.6861 31.66V29.296H25.1861V27.724H23.6861V26.08H23.5661L21.9221 26.416V27.724H20.8181V29.296H21.8381V32.104C21.8381 33.244 22.4861 34.108 23.9381 34.108ZM27.4021 34H29.8381L30.7381 29.704H30.7861L31.6501 34H34.0861L35.6221 27.844V27.724H33.8221L32.8741 32.02H32.8261L31.9861 27.724H29.5141L28.6741 32.02H28.6261L27.6781 27.724H25.8661V27.844L27.4021 34ZM39.1742 34.108C41.2142 34.108 42.3062 32.74 42.3062 30.868C42.3062 28.984 41.1902 27.616 39.1742 27.616C37.1582 27.616 36.0422 28.984 36.0422 30.868C36.0422 32.752 37.1342 34.108 39.1742 34.108ZM39.1742 32.488C38.4182 32.488 37.9262 32.008 37.9262 30.868C37.9262 29.74 38.4062 29.236 39.1742 29.236C39.9422 29.236 40.4222 29.728 40.4222 30.868C40.4222 32.008 39.9422 32.488 39.1742 32.488ZM43.2094 34H44.9374V30.904C44.9374 29.896 45.5014 29.308 46.3774 29.308H46.9774V27.616H46.5454C45.7414 27.616 45.2134 28.084 44.9374 28.636H44.8894L44.7454 27.724H43.2094V34ZM51.2094 30.688L53.7534 27.844V27.724H51.5934L49.6014 30.004V25.12H47.8734V34H49.6014V31.432L51.6534 34H53.8854V33.88L51.2094 30.688Z" fill="#586A74"/>
</svg>
