<svg width="60" height="60" viewBox="0 0 60 60" fill="none" xmlns="http://www.w3.org/2000/svg">
<rect opacity="0.6" x="6" y="54" width="48" height="2" fill="#586A74"/>
<rect opacity="0.6" x="6" y="58" width="48" height="2" fill="#586A74"/>
<rect x="6" y="48" width="24" height="3" fill="#586A74"/>
<rect opacity="0.2" x="6" width="40" height="40" rx="20" fill="#586A74"/>
<path d="M26 10C20.4775 10 16 14.4775 16 20C16 25.5225 20.4775 30 26 30C31.5225 30 36 25.5225 36 20C36 14.4775 31.5225 10 26 10ZM29.605 25.2217L26 23.2933L22.395 25.2208L23.1142 21.1967L20.1667 18.3642L24.2167 17.805L26 14.1258L27.7833 17.805L31.8333 18.3642L28.8858 21.1975L29.605 25.2217V25.2217Z" fill="#586A74"/>
</svg>
