<svg width="60" height="60" viewBox="0 0 60 60" fill="none" xmlns="http://www.w3.org/2000/svg">
<rect opacity="0.6" x="37" y="30" width="23" height="2" fill="#586A74"/>
<rect opacity="0.6" x="37" y="34" width="23" height="2" fill="#586A74"/>
<rect x="37" y="24" width="15" height="3" fill="#586A74"/>
<rect opacity="0.2" y="14" width="32" height="32" rx="16" fill="#586A74"/>
<path d="M16 20C10.4775 20 6 24.4775 6 30C6 35.5225 10.4775 40 16 40C21.5225 40 26 35.5225 26 30C26 24.4775 21.5225 20 16 20ZM19.605 35.2217L16 33.2933L12.395 35.2208L13.1142 31.1967L10.1667 28.3642L14.2167 27.805L16 24.1258L17.7833 27.805L21.8333 28.3642L18.8858 31.1975L19.605 35.2217V35.2217Z" fill="#586A74"/>
</svg>
