<svg width="60" height="60" viewBox="0 0 60 60" fill="none" xmlns="http://www.w3.org/2000/svg">
<rect opacity="0.6" x="6" y="54" width="48" height="2" fill="#586A74"/>
<rect opacity="0.6" x="6" y="58" width="48" height="2" fill="#586A74"/>
<rect x="30" y="48" width="24" height="3" fill="#586A74"/>
<rect opacity="0.2" x="14" width="40" height="40" rx="20" fill="#586A74"/>
<path d="M34 10C28.4775 10 24 14.4775 24 20C24 25.5225 28.4775 30 34 30C39.5225 30 44 25.5225 44 20C44 14.4775 39.5225 10 34 10ZM37.605 25.2217L34 23.2933L30.395 25.2208L31.1142 21.1967L28.1667 18.3642L32.2167 17.805L34 14.1258L35.7833 17.805L39.8333 18.3642L36.8858 21.1975L37.605 25.2217V25.2217Z" fill="#586A74"/>
</svg>
