<svg width="60" height="60" viewBox="0 0 60 60" fill="none" xmlns="http://www.w3.org/2000/svg">
<rect opacity="0.6" x="6" y="54" width="48" height="2" fill="#586A74"/>
<rect opacity="0.6" x="6" y="58" width="48" height="2" fill="#586A74"/>
<rect x="18" y="48" width="24" height="3" fill="#586A74"/>
<rect opacity="0.2" x="10" width="40" height="40" rx="20" fill="#586A74"/>
<path d="M30 10C24.4775 10 20 14.4775 20 20C20 25.5225 24.4775 30 30 30C35.5225 30 40 25.5225 40 20C40 14.4775 35.5225 10 30 10ZM33.605 25.2217L30 23.2933L26.395 25.2208L27.1142 21.1967L24.1667 18.3642L28.2167 17.805L30 14.1258L31.7833 17.805L35.8333 18.3642L32.8858 21.1975L33.605 25.2217V25.2217Z" fill="#586A74"/>
</svg>
