<svg width="60" height="60" viewBox="0 0 60 60" fill="none" xmlns="http://www.w3.org/2000/svg">
<rect opacity="0.6" y="43" width="60" height="2" fill="#586A74"/>
<rect opacity="0.6" y="47" width="60" height="2" fill="#586A74"/>
<rect x="37" y="20" width="23" height="3" fill="#586A74"/>
<rect opacity="0.2" y="6" width="32" height="32" rx="16" fill="#586A74"/>
<path d="M16 12C10.4775 12 6 16.4775 6 22C6 27.5225 10.4775 32 16 32C21.5225 32 26 27.5225 26 22C26 16.4775 21.5225 12 16 12ZM19.605 27.2217L16 25.2933L12.395 27.2208L13.1142 23.1967L10.1667 20.3642L14.2167 19.805L16 16.1258L17.7833 19.805L21.8333 20.3642L18.8858 23.1975L19.605 27.2217V27.2217Z" fill="#586A74"/>
</svg>
