<svg width="60" height="60" viewBox="0 0 60 60" fill="none" xmlns="http://www.w3.org/2000/svg">
<rect opacity="0.6" x="6" y="31" width="48" height="2" fill="#586A74"/>
<rect opacity="0.6" x="6" y="35" width="48" height="2" fill="#586A74"/>
<rect opacity="0.6" x="6" y="39" width="36" height="2" fill="#586A74"/>
<rect opacity="0.6" x="6" y="54" width="24" height="3" fill="#586A74"/>
<rect x="6" y="47" width="24" height="4" fill="#586A74"/>
<path d="M18 3C11.373 3 6 8.373 6 15C6 21.627 11.373 27 18 27C24.627 27 30 21.627 30 15C30 8.373 24.627 3 18 3ZM25.753 21.305C25.492 20.719 24.964 20.314 23.882 20.064C21.589 19.535 19.454 19.071 20.489 17.119C23.634 11.177 21.322 8 18 8C14.612 8 12.356 11.299 15.511 17.119C16.577 19.083 14.363 19.546 12.118 20.064C11.034 20.314 10.51 20.722 10.251 21.31C8.846 19.587 8 17.391 8 15C8 9.486 12.486 5 18 5C23.514 5 28 9.486 28 15C28 17.389 27.155 19.583 25.753 21.305Z" fill="#586A74"/>
</svg>
