<svg width="60" height="60" viewBox="0 0 60 60" fill="none" xmlns="http://www.w3.org/2000/svg">
<rect opacity="0.6" x="6" y="2" width="48" height="2" fill="#586A74"/>
<rect opacity="0.6" x="6" y="6" width="48" height="2" fill="#586A74"/>
<rect opacity="0.6" x="18" y="10" width="36" height="2" fill="#586A74"/>
<rect opacity="0.6" x="30" y="55" width="24" height="3" fill="#586A74"/>
<rect x="30" y="48" width="24" height="4" fill="#586A74"/>
<path d="M42 18C35.373 18 30 23.373 30 30C30 36.627 35.373 42 42 42C48.627 42 54 36.627 54 30C54 23.373 48.627 18 42 18ZM49.753 36.305C49.492 35.719 48.964 35.314 47.882 35.064C45.589 34.535 43.454 34.071 44.489 32.119C47.634 26.177 45.322 23 42 23C38.612 23 36.356 26.299 39.511 32.119C40.577 34.083 38.363 34.546 36.118 35.064C35.034 35.314 34.51 35.722 34.251 36.31C32.846 34.587 32 32.391 32 30C32 24.486 36.486 20 42 20C47.514 20 52 24.486 52 30C52 32.389 51.155 34.583 49.753 36.305Z" fill="#586A74"/>
</svg>
