<svg width="60" height="60" viewBox="0 0 60 60" fill="none" xmlns="http://www.w3.org/2000/svg">
<rect opacity="0.6" x="6" y="2" width="48" height="2" fill="#586A74"/>
<rect opacity="0.6" x="6" y="6" width="48" height="2" fill="#586A74"/>
<rect opacity="0.6" x="6" y="10" width="36" height="2" fill="#586A74"/>
<rect opacity="0.6" x="6" y="55" width="24" height="3" fill="#586A74"/>
<rect x="6" y="48" width="24" height="4" fill="#586A74"/>
<path d="M18 18C11.373 18 6 23.373 6 30C6 36.627 11.373 42 18 42C24.627 42 30 36.627 30 30C30 23.373 24.627 18 18 18ZM25.753 36.305C25.492 35.719 24.964 35.314 23.882 35.064C21.589 34.535 19.454 34.071 20.489 32.119C23.634 26.177 21.322 23 18 23C14.612 23 12.356 26.299 15.511 32.119C16.577 34.083 14.363 34.546 12.118 35.064C11.034 35.314 10.51 35.722 10.251 36.31C8.846 34.587 8 32.391 8 30C8 24.486 12.486 20 18 20C23.514 20 28 24.486 28 30C28 32.389 27.155 34.583 25.753 36.305Z" fill="#586A74"/>
</svg>
