<svg width="60" height="60" viewBox="0 0 60 60" fill="none" xmlns="http://www.w3.org/2000/svg">
<rect opacity="0.6" x="6" y="31" width="48" height="2" fill="#586A74"/>
<rect opacity="0.6" x="6" y="35" width="48" height="2" fill="#586A74"/>
<rect opacity="0.6" x="18" y="39" width="36" height="2" fill="#586A74"/>
<rect opacity="0.6" x="30" y="54" width="24" height="3" fill="#586A74"/>
<rect x="30" y="47" width="24" height="4" fill="#586A74"/>
<path d="M42 3C35.373 3 30 8.373 30 15C30 21.627 35.373 27 42 27C48.627 27 54 21.627 54 15C54 8.373 48.627 3 42 3ZM49.753 21.305C49.492 20.719 48.964 20.314 47.882 20.064C45.589 19.535 43.454 19.071 44.489 17.119C47.634 11.177 45.322 8 42 8C38.612 8 36.356 11.299 39.511 17.119C40.577 19.083 38.363 19.546 36.118 20.064C35.034 20.314 34.51 20.722 34.251 21.31C32.846 19.587 32 17.391 32 15C32 9.486 36.486 5 42 5C47.514 5 52 9.486 52 15C52 17.389 51.155 19.583 49.753 21.305Z" fill="#586A74"/>
</svg>
