<svg width="60" height="60" viewBox="0 0 60 60" fill="none" xmlns="http://www.w3.org/2000/svg">
<rect opacity="0.6" x="6" y="2" width="48" height="2" fill="#586A74"/>
<rect opacity="0.6" x="6" y="6" width="48" height="2" fill="#586A74"/>
<rect opacity="0.6" x="12" y="10" width="36" height="2" fill="#586A74"/>
<rect opacity="0.6" x="18" y="55" width="24" height="3" fill="#586A74"/>
<rect x="18" y="48" width="24" height="4" fill="#586A74"/>
<path d="M30 18C23.373 18 18 23.373 18 30C18 36.627 23.373 42 30 42C36.627 42 42 36.627 42 30C42 23.373 36.627 18 30 18ZM37.753 36.305C37.492 35.719 36.964 35.314 35.882 35.064C33.589 34.535 31.454 34.071 32.489 32.119C35.634 26.177 33.322 23 30 23C26.612 23 24.356 26.299 27.511 32.119C28.577 34.083 26.363 34.546 24.118 35.064C23.034 35.314 22.51 35.722 22.251 36.31C20.846 34.587 20 32.391 20 30C20 24.486 24.486 20 30 20C35.514 20 40 24.486 40 30C40 32.389 39.155 34.583 37.753 36.305Z" fill="#586A74"/>
</svg>
