<svg width="60" height="60" viewBox="0 0 60 60" fill="none" xmlns="http://www.w3.org/2000/svg">
<rect opacity="0.2" y="26" width="18" height="8" rx="2" fill="#586A74"/>
<path d="M0 28C0 26.8954 0.895431 26 2 26H18V34H2C0.89543 34 0 33.1046 0 32V28Z" fill="#586A74"/>
<rect opacity="0.2" x="21" y="26" width="18" height="8" fill="#586A74"/>
<path opacity="0.2" d="M42 26H58C59.1046 26 60 26.8954 60 28V32C60 33.1046 59.1046 34 58 34H42V26Z" fill="#586A74"/>
<rect opacity="0.2" y="42" width="18" height="8" rx="2" fill="#586A74"/>
<path d="M0 44C0 42.8954 0.895431 42 2 42H18V50H2C0.89543 50 0 49.1046 0 48V44Z" fill="#586A74"/>
<rect opacity="0.2" x="21" y="42" width="18" height="8" fill="#586A74"/>
<rect x="21" y="42" width="18" height="8" fill="#586A74"/>
<path opacity="0.2" d="M42 42H58C59.1046 42 60 42.8954 60 44V48C60 49.1046 59.1046 50 58 50H42V42Z" fill="#586A74"/>
<rect opacity="0.2" y="10" width="18" height="8" rx="2" fill="#586A74"/>
<path d="M0 12C0 10.8954 0.895431 10 2 10H18V18H2C0.89543 18 0 17.1046 0 16V12Z" fill="#586A74"/>
<rect opacity="0.2" x="21" y="10" width="18" height="8" fill="#586A74"/>
<rect x="21" y="10" width="18" height="8" fill="#586A74"/>
<path opacity="0.2" d="M42 10H58C59.1046 10 60 10.8954 60 12V16C60 17.1046 59.1046 18 58 18H42V10Z" fill="#586A74"/>
</svg>
