<svg width="60" height="60" viewBox="0 0 60 60" fill="none" xmlns="http://www.w3.org/2000/svg">
<rect opacity="0.2" y="26" width="60" height="8" rx="2" fill="#586A74"/>
<path d="M2 29C2 28.4477 2.44772 28 3 28H30V32H3C2.44771 32 2 31.5523 2 31V29Z" fill="#586A74"/>
<rect opacity="0.2" y="42" width="60" height="8" rx="2" fill="#586A74"/>
<path d="M2 45C2 44.4477 2.44772 44 3 44H45V48H3C2.44772 48 2 47.5523 2 47V45Z" fill="#586A74"/>
<rect opacity="0.2" y="10" width="60" height="8" rx="2" fill="#586A74"/>
<path d="M2 13C2 12.4477 2.44772 12 3 12H45V16H3C2.44772 16 2 15.5523 2 15V13Z" fill="#586A74"/>
</svg>
