<svg width="60" height="60" viewBox="0 0 60 60" fill="none" xmlns="http://www.w3.org/2000/svg">
<rect opacity="0.2" y="26" width="60" height="8" rx="2" fill="#586A74"/>
<path d="M0 28C0 26.8954 0.895431 26 2 26H30V34H2C0.89543 34 0 33.1046 0 32V28Z" fill="#586A74"/>
<mask id="mask0" mask-type="alpha" maskUnits="userSpaceOnUse" x="0" y="26" width="30" height="8">
<path d="M0 28C0 26.8954 0.895431 26 2 26H30V34H2C0.89543 34 0 33.1046 0 32V28Z" fill="#586A74"/>
</mask>
<g mask="url(#mask0)">
<path opacity="0.15" d="M24 34L30 26H23L17 34H24Z" fill="white"/>
<path opacity="0.15" d="M11 34L17 26H10L4 34H11Z" fill="white"/>
<path opacity="0.15" d="M-2 34L4 26H-3L-9 34H-2Z" fill="white"/>
</g>
<rect opacity="0.2" y="42" width="60" height="8" rx="2" fill="#586A74"/>
<path d="M0 44C0 42.8954 0.895431 42 2 42H45V50H2C0.89543 50 0 49.1046 0 48V44Z" fill="#586A74"/>
<mask id="mask1" mask-type="alpha" maskUnits="userSpaceOnUse" x="0" y="42" width="45" height="8">
<path d="M0 44C0 42.8954 0.895431 42 2 42H45V50H2C0.89543 50 0 49.1046 0 48V44Z" fill="#586A74"/>
</mask>
<g mask="url(#mask1)">
<path opacity="0.15" d="M39 50L45 42H38L32 50H39Z" fill="white"/>
<path opacity="0.15" d="M26 50L32 42H25L19 50H26Z" fill="white"/>
<path opacity="0.15" d="M13 50L19 42H12L6 50H13Z" fill="white"/>
<path opacity="0.15" d="M0 50L6 42H-1L-7 50H0Z" fill="white"/>
</g>
<rect opacity="0.2" y="10" width="60" height="8" rx="2" fill="#586A74"/>
<path d="M0 12C0 10.8954 0.895431 10 2 10H45V18H2C0.89543 18 0 17.1046 0 16V12Z" fill="#586A74"/>
<mask id="mask2" mask-type="alpha" maskUnits="userSpaceOnUse" x="0" y="10" width="45" height="8">
<path d="M0 12C0 10.8954 0.895431 10 2 10H45V18H2C0.89543 18 0 17.1046 0 16V12Z" fill="#586A74"/>
</mask>
<g mask="url(#mask2)">
<path opacity="0.15" d="M39 18L45 10H38L32 18H39Z" fill="white"/>
<path opacity="0.15" d="M26 18L32 10H25L19 18H26Z" fill="white"/>
<path opacity="0.15" d="M13 18L19 10H12L6 18H13Z" fill="white"/>
<path opacity="0.15" d="M0 18L6 10H-1L-7 18H0Z" fill="white"/>
</g>
</svg>
