<svg width="237" height="130" viewBox="0 0 237 130" fill="none" xmlns="http://www.w3.org/2000/svg">
<rect width="237" height="130" fill="#1C66AB" fill-opacity="0.05"/>
<circle cx="119" cy="65" r="35" fill="white"/>
<path d="M107.372 65C107.372 63.7273 107.558 62.4545 108.023 61.2727L101.14 56.0909C99.7442 58.8182 99 61.8182 99 65C99 68.1818 99.7442 71.1818 101.14 73.8182L108.023 68.6364C107.558 67.5455 107.372 66.2727 107.372 65Z" fill="#FBBC05"/>
<path d="M119.465 53.1818C122.349 53.1818 124.953 54.1818 127 55.8182L132.953 50C129.326 46.9091 124.674 45 119.465 45C111.372 45 104.395 49.5455 101.14 56.1818L108.023 61.3636C109.605 56.5455 114.07 53.1818 119.465 53.1818Z" fill="#EA4335"/>
<path d="M119.465 76.8182C114.07 76.8182 109.605 73.4545 108.023 68.7273L101.14 73.9091C104.395 80.4545 111.372 85 119.465 85C124.488 85 129.233 83.2727 132.767 80L126.256 75.0909C124.395 76.1818 122.07 76.8182 119.465 76.8182Z" fill="#34A853"/>
<path d="M119.465 61.3636V69.0909H130.442C129.884 71.7273 128.395 73.7273 126.256 75.0909L132.767 80C136.488 76.5455 139 71.5455 139 65C139 63.8182 138.814 62.5455 138.535 61.3636H119.465Z" fill="#4285F4"/>
</svg>
