<svg width="60" height="60" viewBox="0 0 60 60" fill="none" xmlns="http://www.w3.org/2000/svg">
<rect width="60" height="60" rx="6" fill="#586A74"/>
<path d="M0 30H60V54C60 57.3137 57.3137 60 54 60H6C2.68629 60 0 57.3137 0 54V30Z" fill="white" fill-opacity="0.1"/>
<circle cx="39" cy="34" r="5" stroke="white" stroke-width="4"/>
<path fill-rule="evenodd" clip-rule="evenodd" d="M42 26H46C46 22.134 42.866 19 39 19C35.134 19 32 22.134 32 26H36C36 24.3431 37.3431 23 39 23C40.6569 23 42 24.3431 42 26Z" fill="white"/>
<rect x="32" y="26" width="4" height="8" fill="white"/>
<circle cx="21" cy="26" r="5" transform="rotate(180 21 26)" stroke="white" stroke-width="4"/>
<path fill-rule="evenodd" clip-rule="evenodd" d="M18 34L14 34C14 37.866 17.134 41 21 41C24.866 41 28 37.866 28 34L24 34C24 35.6569 22.6569 37 21 37C19.3431 37 18 35.6569 18 34Z" fill="white"/>
<rect x="28" y="34" width="4" height="8" transform="rotate(180 28 34)" fill="white"/>
</svg>
